<svg width="806" height="448" fill="none" xmlns="http://www.w3.org/2000/svg"><path d="M331.678.52c-.277.369.092 3.596.83 7.192.645 3.503 2.489 13.277 4.057 21.667 1.567 8.39 3.319 17.61 3.872 20.47.646 2.95.83 5.531.553 5.808-.276.277-4.61-.277-9.589-1.29-9.958-2.03-28.122-4.242-41.952-5.256l-8.851-.554-1.476-9.404c-.737-5.072-2.12-15.214-3.042-22.498-.922-7.192-2.029-13.093-2.398-13.093-.368 0-7.191 9.682-15.029 21.484L244.27 46.62l-28.767.553c-30.059.646-52.003 2.213-71.55 5.256-13.092 1.936-31.717 5.809-38.448 7.837-7.008 2.12-7.1 2.028-9.866-5.532-2.305-6.178-10.142-21.391-11.71-22.59-.276-.276-1.567-1.936-2.766-3.688-1.198-1.752-4.702-5.624-7.653-8.575-4.702-4.426-6.085-5.255-8.943-5.255-2.12 0-4.241.737-5.625 1.936-1.198 1.106-3.227 2.858-4.517 3.965-2.951 2.49-8.299 9.312-8.299 10.51 0 .554-.369 1.107-.737 1.292-1.383.553-5.625 12.54-7.653 21.298-1.475 6.27-2.029 12.817-2.397 25.54-.462 15.767-.277 17.888 1.936 28.583 1.475 7.1 4.518 17.242 7.93 26.186 3.042 8.022 5.531 15.029 5.531 15.49 0 .461-4.979 7.653-11.064 16.043-23.42 32.087-33.1 51.542-37.895 76.252-5.717 29.228 3.78 58.18 26.277 80.401 18.718 18.44 40.477 27.292 63.897 26.001 4.979-.277 12.171-1.291 15.951-2.305 4.057-1.199 7.284-1.568 7.837-1.107.553.461 1.568 2.398 2.213 4.334.646 1.936 1.752 4.702 2.397 6.27 7.93 19.086 11.71 33.561 11.895 46.101.092 7.468-.185 8.851-2.49 13.369-3.227 6.27-7.745 10.511-15.029 13.923-8.114 3.965-15.582 5.163-20.653 3.411l-3.965-1.29 4.057-2.398c5.716-3.503 8.575-6.362 10.972-11.433 2.582-5.163 2.674-12.724.369-20.469-2.582-8.943-12.632-16.873-23.235-18.256-15.675-2.028-30.243 15.767-28.49 34.76 1.75 19.455 20.56 33.931 43.98 34.023 15.859 0 32.363-8.021 40.292-19.639 1.383-2.121 2.766-4.057 3.043-4.333 1.66-1.476 4.795-11.157 5.717-17.335.829-5.993.737-8.482-.554-15.029-1.567-7.468-7.376-26.001-13.369-42.136-1.567-4.242-2.858-8.391-2.858-9.22 0-.83 3.964-5.256 8.851-9.774 4.795-4.518 9.774-9.773 10.972-11.71 2.766-4.241 34.576-35.59 49.79-49.052 3.319-2.858 10.326-8.851 23.972-20.469 9.221-7.745 29.321-23.327 42.875-33.008 9.128-6.454 37.803-24.987 44.718-28.86 2.582-1.383 6.085-3.411 7.837-4.517 1.752-1.107 12.171-6.362 23.051-11.71 29.597-14.568 42.782-19.086 63.896-22.221 2.398-.369 2.582-.184 2.029 2.028-.277 1.291-3.135 7.561-6.27 13.923-5.993 12.079-16.873 29.044-30.427 47.208-4.426 5.993-8.022 11.249-8.022 11.71 0 .461-.368 1.014-.737 1.198-.369.092-2.951 3.504-5.625 7.376-2.766 3.965-5.071 7.192-5.347 7.192-.185 0-3.135-2.858-6.639-6.454-3.411-3.596-6.731-6.454-7.284-6.454-2.305 0-.922 2.674 4.241 7.929 8.299 8.667 8.022 8.114 5.901 11.618-6.546 10.788-9.865 18.809-11.248 27.845-1.937 11.525 1.291 20.469 9.312 26.001 4.241 2.951 4.979 4.057 5.809 9.128.922 4.979 4.241 10.419 9.036 14.845 3.411 3.135 4.241 4.702 5.255 9.22 1.383 6.362 5.44 14.476 9.497 18.809 2.029 2.306 3.135 4.795 4.057 9.221 1.475 7.099 5.256 16.504 8.667 21.667 1.66 2.398 2.674 5.44 3.043 8.76.83 7.652 4.518 19.454 8.114 25.448 6.638 11.156 17.887 19.454 31.441 23.142 4.702 1.383 9.404 1.66 24.71 1.568 17.15 0 20.008-.277 30.427-2.582 19.363-4.241 50.343-16.781 67.308-27.107 1.752-1.107 3.872-2.305 4.61-2.674 3.319-1.568 19.455-11.71 37.803-23.789 42.137-27.753 49.421-32.27 65.648-41.399 5.901-3.227 6.362-3.411 8.299-2.028 2.858 2.028 9.312 1.844 13.554-.277 3.688-1.936 7.837-7.284 8.759-11.433.461-2.12 2.12-3.227 9.589-6.915 18.717-9.22 56.52-23.696 78.556-30.058 2.306-.738 7.653-2.305 11.987-3.596 4.333-1.291 9.22-2.582 10.88-2.95 1.567-.369 2.95-1.015 2.95-1.568 0-1.106-3.135-.461-17.057 3.596-31.441 9.313-64.819 21.76-88.423 33.009-3.964 1.844-7.468 3.042-7.837 2.581-1.106-1.198-7.653-32.455-7.099-33.377.461-.646 4.886-2.213 15.397-5.256 3.412-.922 5.164 11.157 3.412 23.143l-.738 4.61 1.937-4.61c2.12-4.979 2.766-15.49 1.383-21.76l-.738-3.227 14.107-3.411c24.526-5.901 52.187-10.235 71.826-11.341 12.447-.646 18.256-2.121 8.667-2.213-16.597-.092-56.52 5.717-81.507 11.894l-14.292 3.504-6.269-5.625c-14.015-12.631-20.469-18.901-19.824-19.454 1.106-1.199 17.795-5.071 31.625-7.376 26.37-4.426 58.457-4.795 85.749-.923 8.575 1.199 10.695 1.199 9.497 0-.277-.276-5.625-1.198-11.894-2.12-8.76-1.199-18.164-1.475-40.016-1.475-31.626 0-40.754 1.014-65.28 7.099l-11.802 2.951-1.844-2.305-1.844-2.305.277 2.673c.276 2.582.184 2.582-14.937 7.93-8.39 2.858-19.547 7.192-24.895 9.497-5.255 2.397-9.865 4.333-10.234 4.333-.646 0-1.844-3.135-7.284-19.639-2.121-6.454-3.781-11.986-3.504-12.171.83-.922 26.647-10.88 35.59-13.738 18.902-6.085 42.967-11.249 55.045-11.802l5.532-.276.461 3.78.554 3.872-4.795.461c-9.405 1.015-16.965 7.93-16.965 15.767 0 7.93 12.355 8.483 20.561 1.014 5.163-4.886 5.532-6.177 4.887-16.043l-.646-9.036 4.887-.553c6.823-.645 31.994.922 40.754 2.582 3.964.737 7.376 1.383 7.56 1.383.185 0 .369 1.659.369 3.596 0 8.298 7.837 10.695 16.043 4.979 2.398-1.66 4.795-3.043 5.533-3.043.645 0 4.241 1.014 7.929 2.305 6.731 2.305 11.341 3.043 9.681 1.567-.553-.461-4.61-1.936-9.036-3.411-6.546-2.121-8.021-2.858-7.468-4.057 1.291-3.227 1.383-9.036.092-13.185-.738-2.397-1.106-4.518-.922-4.795.277-.276 4.149 1.383 8.667 3.596 8.759 4.426 9.128 4.61 9.128 3.412 0-.83-16.688-9.405-18.256-9.405-.369 0-2.582-6.362-4.702-14.107-7.192-25.724-9.589-32.916-10.88-32.916-1.844 0-1.568 1.567 3.043 17.334 5.808 19.731 6.823 23.419 6.823 25.171 0 1.199-1.937.738-10.788-2.489-5.993-2.121-14.845-4.887-19.732-6.086l-8.759-2.12v-6.916c.092-6.177-1.198-16.965-6.638-55.967-1.015-7.099-1.937-10.972-2.582-10.603-.461.369-2.305 2.951-4.057 5.717-1.752 2.766-3.411 5.255-3.688 5.532-.461.461-4.241 5.993-18.902 27.661l-5.255 7.837.461 5.993c.369 3.319.83 8.483 1.198 11.618l.646 5.624-13.277.553c-21.945.922-43.612 5.44-66.202 13.923-6.362 2.305-11.894 4.241-12.263 4.241-.461 0-4.149 1.568-8.39 3.596-4.149 1.936-10.696 4.887-14.476 6.639-3.78 1.659-13.646 6.454-21.852 10.603l-14.937 7.468-1.475-2.12c-.738-1.199-1.383-2.398-1.383-2.674 0-.277-2.951-6.547-6.547-14.015-3.595-7.376-6.915-14.476-7.376-15.674-.83-2.121-2.305-2.674-4.241-1.383-.83.553-.738 1.383.184 3.411.738 1.567 4.426 9.22 8.206 17.242 3.781 7.929 7.1 15.213 7.377 16.228.461 1.475-1.66 3.042-13.462 10.234-7.745 4.702-17.611 10.788-21.944 13.554-4.334 2.766-8.483 5.348-9.221 5.624-.737.369-6.362 3.504-12.447 7.008-15.859 9.22-37.711 20.008-51.91 25.54-6.731 2.674-12.355 4.702-12.632 4.518-.369-.369 2.305-4.795 12.079-20.377 9.312-14.753 14.383-23.973 19.178-34.668 15.398-34.207 14.107-66.386-3.227-83.905-2.121-2.12-4.149-3.872-4.61-3.872-.369 0-2.213-2.213-4.149-4.795-1.844-2.674-4.887-6.085-6.639-7.653-1.752-1.475-4.702-5.071-6.639-7.837-1.936-2.766-4.518-6.085-5.808-7.284-1.291-1.198-3.873-4.794-5.809-8.021-1.844-3.228-4.149-6.639-5.071-7.653-.922-1.014-3.596-5.44-5.901-9.866-10.604-20.192-24.065-30.703-51.818-40.385l-10.88-3.78-1.936-9.681c-1.015-5.348-3.32-16.966-4.887-25.817C335.458.889 335.274.428 333.614.059c-.83-.185-1.659.092-1.936.46Zm-59.84 26.646 1.107 7.93-3.873 5.624c-2.12 3.135-4.241 5.993-4.794 6.362-1.475 1.014-11.433.922-12.079-.092-.461-.83 6.639-12.632 9.128-15.398.554-.645 2.582-3.596 4.518-6.73 1.844-3.043 3.781-5.625 4.242-5.625.368 0 1.198 3.596 1.751 7.93Zm-33.193 23.05c1.291.37 1.937 1.107 1.66 1.845-.277.645-4.241 6.915-8.944 13.923l-8.39 12.631.738 6.086c.368 3.319.737 7.192.737 8.667l.092 2.766-17.979 3.872c-20.93 4.518-38.172 9.036-54.307 14.2-6.362 2.028-11.71 3.411-11.987 3.135-.369-.277-.737-6.916-.922-14.753l-.276-14.2h-4.426l.553 15.675c.553 14.753.553 15.675-1.106 16.228-.922.277-2.951 1.106-4.518 1.752-1.476.645-3.781 1.475-5.071 1.844-1.291.369-7.008 2.766-12.817 5.163-5.808 2.49-10.695 4.334-10.972 4.057-.276-.184.092-3.688.83-7.56 2.029-11.341 1.752-44.073-.461-52.648-.922-3.688-1.475-6.915-1.199-7.192.922-1.014 25.08-6.823 35.683-8.667 17.426-2.95 30.703-4.426 51.172-5.532 31.165-1.66 48.868-2.029 51.91-1.291Zm23.236.83c0 .277-6.455 10.235-14.384 22.13-12.263 18.532-16.873 24.249-16.965 20.93 0-.37-.461-3.504-.922-7.008l-.922-6.27 6.085-9.404c3.411-5.072 7.929-11.895 10.234-15.122l4.057-5.716h6.455c3.503 0 6.362.184 6.362.46Zm15.397 14.384c1.107 7.284 2.121 15.122 2.305 17.334l.277 4.057-11.525 1.66c-6.362.922-14.568 2.305-18.349 3.043-3.78.83-7.099 1.198-7.56 1.014-.646-.461 25.355-40.108 27.015-41.122.553-.37 2.029-.277 3.412 0 2.305.645 2.489 1.106 4.425 14.014Zm24.526-12.078c12.909 1.106 36.605 4.979 39.463 6.454.922.553 1.752 1.66 1.752 2.582 0 .83.276 3.042.553 4.886l.553 3.228h-4.518c-7.191 0-12.724 3.134-19.454 11.156-1.568 1.844-3.043 2.12-16.412 3.043-8.022.553-15.214 1.198-15.859 1.383-.646.276-1.568-.461-1.937-1.66-.737-1.66-4.794-29.874-4.702-32.27 0-.37 1.936-.462 4.426-.185 2.397.184 9.681.922 16.135 1.383ZM79.78 58.146c6.362 5.533 6.823 27.385.922 44.534-4.057 12.079-14.107 30.704-18.901 35.037-1.476 1.291-1.937 1.383-2.305.369-2.582-7.284-3.504-10.788-4.61-18.348-1.752-11.065-1.752-16.597 0-28.03 2.858-18.625 7.929-30.427 14.752-33.746 4.794-2.397 7.192-2.305 10.142.184Zm277.715 6.362c18.532 6.547 29.32 13.001 38.448 23.143 5.44 5.993 10.327 13.37 9.405 14.292-.277.368-1.291-.093-2.121-.83-2.305-2.029-11.894-6.731-18.256-8.944-6.823-2.397-8.022-3.504-11.71-11.249-1.659-3.503-3.319-6.362-3.688-6.362-.461 0-.737 2.859-.737 6.455 0 5.07-.277 6.454-1.383 6.454-1.199 0-11.618-1.475-16.597-2.397-1.567-.277-1.844-1.015-1.936-6.086 0-3.227-.369-8.39-.738-11.617-.553-3.873-.461-5.717.185-5.717.553 0 4.61 1.29 9.128 2.858ZM344.217 75.85c1.199.922 1.568 2.305 1.384 4.887l-.277 3.504-10.142-.37c-5.533-.184-10.327-.46-10.511-.645-.83-.737 3.964-4.978 7.652-6.73 4.426-2.12 9.497-2.398 11.894-.646Zm-27.015 14.2c0 1.383.83 3.78 1.844 5.44 4.426 7.283 17.703 5.255 25.725-3.873 2.489-2.858 3.319-3.227 7.192-3.227 2.397.092 7.099.553 10.418 1.199l5.994 1.106.276 9.405.277 9.404-3.965.461c-2.213.277-7.653.738-12.263 1.015-4.518.368-11.986 1.198-16.596 1.936-4.518.737-10.604 1.752-13.37 2.213-7.284 1.106-26.185 5.347-33.1 7.468-7.653 2.305-8.022 2.213-5.256-1.014 4.333-5.256 4.887-9.958 2.766-27.384l-.645-4.795 3.135-.553c4.056-.738 26.001-2.029 26.923-1.568.369.185.645 1.383.645 2.767Zm24.618-2.213c.922.83-.83 2.49-5.532 5.163-4.979 2.858-9.589 3.504-12.724 1.844-2.397-1.29-2.489-7.1-.092-7.653 2.028-.553 17.703 0 18.348.646Zm-60.577 7.192.553 4.24-5.163.093c-8.022 0-14.937 3.043-21.391 9.405-1.475 1.383-2.582 2.95-2.582 3.503 0 .554-.276 1.015-.645 1.015-1.291 0-3.135 4.979-3.688 9.773-.461 4.334-.277 4.795 2.489 7.561 1.66 1.659 2.858 3.227 2.582 3.411-.277.369-15.306 5.993-15.951 5.993-.092 0-.553-1.936-.83-4.425-.369-2.398-1.475-9.866-2.489-16.597l-1.937-12.171 3.043-4.886c1.66-2.582 3.135-4.887 3.227-5.072.184-.276 27.292-5.07 34.023-5.993 1.567-.276 4.057-.368 5.532-.276 2.582.092 2.766.368 3.227 4.425Zm95.983-.923c5.44 3.873 7.1 5.901 8.206 9.866 1.568 5.717 1.291 6.547-2.213 6.547-1.659 0-4.979-.277-7.376-.554l-4.241-.645v-9.036c0-5.071.368-9.128.737-9.128.461 0 2.674 1.29 4.887 2.95Zm16.689 4.98c9.312 4.61 15.213 9.404 16.504 13.553.645 1.844.922 3.596.645 3.873-.276.276-2.397-.277-4.702-1.291-2.305-1.014-6.823-2.305-10.05-2.951-3.227-.553-6.27-1.475-6.823-1.936-.553-.369-1.291-2.674-1.567-4.979-.185-2.305-1.291-5.44-2.398-6.915-1.106-1.383-1.936-2.858-1.936-3.135 0-.922 3.596.461 10.327 3.78Zm-167.256 8.39c.553 4.518 1.936 13.738 2.951 20.561 1.014 6.823 1.844 12.816 1.844 13.369 0 .461-2.213 1.844-4.887 2.951-2.582 1.106-10.788 4.426-18.164 7.468-7.376 3.043-16.504 6.915-20.285 8.575-11.709 5.256-44.902 21.944-52.186 26.278-3.781 2.213-7.008 4.057-7.192 4.057-1.383 0-37.434 23.604-38.449 25.171-1.383 2.029-3.227-.369-5.44-6.823-1.198-3.78-3.596-10.511-5.255-14.937-3.504-9.497-3.688-11.617-1.199-14.476 5.993-6.915 17.519-29.689 18.994-37.434.553-3.042 1.199-3.596 7.192-6.362 11.525-5.348 29.044-12.447 30.519-12.447.184 0 .553 12.447.922 27.661.369 15.213.737 27.66.922 27.66.092 0 2.858-2.581 6.085-5.808 3.32-3.135 8.299-7.93 11.157-10.604 5.716-5.255 9.036-11.156 9.036-15.766 0-2.121-.922-3.965-3.412-6.547-2.95-3.319-3.78-3.688-7.653-3.688-3.042 0-5.347.646-7.652 2.213-1.752 1.199-3.504 2.029-3.781 1.66-.276-.277-.553-4.703-.553-9.774v-9.312l9.036-2.674c18.717-5.717 24.065-7.192 36.604-10.419 14.568-3.78 34.945-8.298 37.896-8.483 1.751-.092 2.028.646 2.95 7.93Zm142.177 12.816v6.823h-4.334c-5.163 0-9.681 2.397-11.71 6.178-1.014 2.12-2.766 3.042-9.497 5.255-10.326 3.319-38.264 13.462-39.462 14.384-.461.369-4.149 1.936-8.022 3.596-8.298 3.319-31.533 14.844-43.427 21.483-4.426 2.397-8.391 4.426-8.852 4.426-.369 0-1.014-2.766-1.383-6.086-.369-3.319-1.199-9.404-1.936-13.554-.646-4.149-1.475-10.234-1.844-13.553l-.646-5.994 11.895-4.241c6.454-2.397 13.922-4.887 16.412-5.716 2.581-.738 8.39-2.674 12.908-4.334 21.022-7.376 57.35-14.291 83.904-15.951 5.901-.369 5.994-.184 5.994 7.284Zm12.539-7.007c4.61 0 5.071 1.198 2.674 7.099-2.213 5.164-1.014 4.518 1.936-1.106 3.135-5.901 3.781-6.086 14.107-3.227 10.972 3.042 12.079 3.872 12.079 9.036v4.333h-13.554c-7.561 0-16.689.369-20.285.738l-6.73.737v-8.759c0-7.561.184-8.759 1.659-9.128.83-.277 2.121-.277 2.766-.092.738.184 3.135.369 5.348.369Zm351.569 16.596c.092 2.582-1.383 5.348-7.007 13.83-3.873 5.809-7.469 10.696-7.838 10.88-.369.185-.737.738-.737 1.291 0 .461-2.398 4.242-5.256 8.298-4.794 6.639-5.348 7.192-5.901 5.164-1.567-5.532-.922-8.206 4.241-16.136 2.859-4.241 5.533-8.298 5.994-8.851.553-.646 2.766-3.78 4.886-7.1 10.327-15.582 10.235-15.398 10.88-12.908.369 1.291.646 3.78.738 5.532Zm-322.064 2.951c.738.461.738 2.305.184 5.993-.461 2.858-.922 5.44-1.106 5.532-.184.184-4.61 1.014-9.866 1.752-31.072 4.61-84.642 31.072-135.999 67.215-9.865 7.008-12.816 9.129-13.277 9.682-.276.276-1.936 1.567-3.688 2.766-1.752 1.198-5.071 3.688-7.376 5.532-2.305 1.844-8.483 6.823-13.831 11.064-5.347 4.242-9.865 8.022-10.142 8.299-.276.276-3.135 2.766-6.454 5.532s-6.454 5.44-7.007 5.993c-.554.461-4.057 3.596-7.745 6.915-6.639 5.809-24.987 23.235-33.009 31.257-2.213 2.12-4.149 3.78-4.426 3.504-.276-.185.461-3.873 1.568-8.114 3.411-13.093 1.659-27.753-5.071-42.69-2.674-5.993-2.859-7.008-1.383-7.008.922 0 9.035-5.163 10.05-6.454.829-.922 13-9.589 22.128-15.766 4.795-3.228 8.944-6.086 9.221-6.362.276-.277 2.673-1.937 5.347-3.596l4.887-3.135 3.596 2.028c4.61 2.582 11.525 2.582 17.795-.092 2.674-1.106 4.979-2.213 5.256-2.582.276-.276 2.028-1.659 3.964-3.042 4.703-3.504 8.944-11.065 8.944-16.044 0-4.333.645-4.979 11.433-10.879 7.008-3.781 35.037-17.796 40.2-20.101 14.937-6.638 29.598-12.263 44.903-17.334l9.405-3.135 1.936 2.121c1.568 1.567 2.951 2.028 6.915 2.028 4.334 0 5.44-.368 8.391-2.95 1.844-1.567 3.688-3.873 4.057-4.979.737-1.752 1.752-2.121 7.099-2.674 3.412-.369 6.731-.737 7.192-.922 1.568-.645 24.803 0 25.909.646Zm325.383 20.561c.83 7.099 1.844 14.476 2.305 16.32l.738 3.503h-3.135c-4.702 0-10.511 2.674-14.476 6.639-3.411 3.411-3.78 3.596-8.759 3.319-4.979-.276-5.256-.461-5.532-2.766-.277-2.121 1.659-6.454 3.504-8.114.276-.276 5.439-7.837 11.525-16.873 5.993-9.036 11.249-16.043 11.525-15.674.369.369 1.383 6.546 2.305 13.646Zm-586.224-10.788c2.12 1.291 3.135 5.717 2.12 9.313-.922 3.503-5.163 10.695-8.851 15.121l-2.213 2.674v-9.128c0-4.979-.277-9.958-.553-11.065-.461-1.475.184-2.766 2.213-4.887 2.766-2.766 5.163-3.411 7.284-2.028Zm82.798 7.837c1.844 13.738 3.319 24.526 3.78 26.555.461 2.397.369 2.489-5.809 2.858-13.369.738-26.001 11.341-27.568 23.051l-.646 4.518-11.894 8.021c-11.156 7.469-23.973 16.689-35.498 25.356-2.674 2.028-4.887 4.057-4.887 4.702 0 .553-1.014-.553-2.397-2.489-6.546-9.682-16.32-17.703-26.739-22.037-6.177-2.489-8.851-3.042-17.334-3.411l-9.958-.553 13.831-9.036c7.652-4.979 16.32-10.511 19.27-12.355 20.838-12.54 54.123-29.136 80.493-40.016 4.794-2.029 9.589-4.057 10.603-4.518 4.242-2.121 13.001-5.256 13.554-4.887.369.184.83 2.028 1.199 4.241Zm190.214-2.305c.922.646.922 2.213.092 7.837l-1.014 7.008-3.412.276c-5.901.461-12.078-.276-12.078-1.567 0-.645.83-3.135 1.936-5.624 1.014-2.49 2.213-5.44 2.674-6.639.737-1.752 1.567-2.028 5.716-2.028 2.674 0 5.44.368 6.086.737Zm12.447 2.858c.461.461 1.014 3.32 1.291 6.455l.553 5.532-5.901-.369-5.901-.369.092-3.042c0-1.66.369-4.611.738-6.639l.646-3.504 3.872.553c2.121.369 4.241 1.015 4.61 1.383Zm23.143 18.533c3.873 7.1 6.085 17.427 6.085 28.214 0 23.051-8.482 45.087-31.349 81.6-6.177 9.865-11.894 18.532-12.723 19.362-1.568 1.475-20.654 6.362-24.895 6.362h-2.121l2.582-4.426c2.858-4.794 13.185-21.575 13.83-22.313.277-.276 1.291.646 2.305 2.121 3.688 5.071 11.618 1.752 13.277-5.624.277-1.383.738-3.043.922-3.781.554-1.751-1.29-8.113-2.858-9.681-1.198-1.199-.737-2.397 3.965-9.958 6.915-10.972 12.816-21.76 15.951-29.32 1.752-4.057 3.411-6.454 5.071-7.376 5.901-3.32 8.483-11.618 5.532-17.335-1.291-2.489-1.383-4.61-.922-12.447.461-7.1.277-11.249-.922-16.689-.83-3.964-1.475-7.468-1.475-7.745 0-1.475 5.624 5.072 7.745 9.036Zm-47.392-.369c3.688 2.49 6.454 4.979 6.454 5.901 0 3.965-14.384 29.597-24.618 43.981l-4.149 5.809h-8.114c-8.944 0-13.83-.738-13.83-2.029 0-.829 3.78-6.269 16.78-24.249 6.455-9.036 20.101-31.164 20.101-32.732 0-1.475.461-1.199 7.376 3.319Zm25.54-3.042c.553.645-1.199 14.383-1.936 15.121-.369.461-4.057-1.567-9.036-5.071-4.241-2.858-4.334-3.043-3.319-5.993 1.475-4.426 3.227-5.44 8.759-4.979 2.674.184 5.163.645 5.532.922Zm7.929 6.085c5.901 6.546 6.455 7.93 5.901 13.554-.276 2.858-.737 5.348-1.014 5.624-.276.369-8.667-4.794-12.355-7.56-.184-.185.184-2.029.645-4.242s1.199-5.624 1.476-7.56c.276-1.844.922-3.412 1.29-3.412.462 0 2.306 1.66 4.057 3.596Zm-17.149 7.93c3.135 2.028 5.716 4.333 5.808 5.163 0 3.319-4.241 14.015-10.234 25.54-3.596 6.823-6.823 12.816-7.376 13.369-.461.646-1.475 1.937-2.121 2.859-1.199 1.752-1.291 1.752-5.44-.277-2.305-1.106-6.546-2.305-9.405-2.582-2.766-.276-5.071-.645-5.071-.829 0-.185 3.32-5.348 7.469-11.618 4.057-6.27 10.142-16.873 13.554-23.604 3.319-6.731 6.362-12.078 6.638-11.986.277.184 3.043 1.936 6.178 3.965Zm278.175 15.397c.83 5.717 1.66 12.448 1.752 14.937l.184 4.426-4.149.369c-12.17.83-29.597 4.241-46.378 9.036-7.652 2.212-15.029 4.425-16.32 4.979-1.29.553-5.439 2.12-9.22 3.503-3.78 1.383-9.497 3.688-12.724 5.164-7.007 3.134-7.376 3.134-8.482.276-.922-2.397-1.66-2.674-3.965-1.752-1.107.369-1.199 1.107-.553 3.412.461 1.567.737 2.95.553 3.043-.092.092-6.546 3.411-14.384 7.284-7.837 3.964-16.32 8.39-18.717 9.773-2.489 1.475-4.887 2.674-5.44 2.674-.461 0-2.12-2.582-3.504-5.809-1.475-3.135-4.61-9.773-6.915-14.844-2.397-4.979-4.057-9.405-3.596-9.774 1.568-1.567 26.186-13.923 37.619-18.902 6.639-2.95 12.447-5.716 13.093-6.177 1.106-.922 12.263-5.071 28.398-10.511 20.746-7.1 42.321-11.065 62.329-11.341l8.852-.092 1.567 10.326Zm11.618-6.915c0 4.057.553 5.164 3.411 6.639 4.242 2.213 11.526.369 16.412-4.057 3.043-2.858 3.412-2.951 7.561-2.213 7.1 1.383 17.611 4.518 28.214 8.483 9.128 3.319 10.05 3.964 11.249 6.915 1.751 4.057 1.844 3.872-1.66 3.872-4.334 0-13.462 5.717-14.568 9.128-.277.83-2.858.738-9.589-.276-12.263-1.844-32.64-3.135-40.293-2.582-3.503.185-6.269 0-6.269-.369 0-.461-.83-7.007-1.845-14.568-1.014-7.468-1.844-13.83-1.844-14.015 0-.184 2.121-.368 4.611-.368h4.61v3.411Zm-275.686.83c2.028 1.383 3.688 2.582 3.688 2.674 0 .092-1.014 1.291-2.213 2.766-1.199 1.383-2.397 4.057-2.766 5.901-.553 3.596.738 9.773 2.213 10.695 1.936 1.199 1.198 3.873-4.149 15.214-4.887 10.511-16.966 30.427-18.349 30.427-.645 0-2.858-1.107-4.794-2.49a555.607 555.607 0 0 1-7.469-5.071l-3.872-2.582 4.149-6.269c2.305-3.412 4.518-6.27 4.887-6.455.368-.092 2.028 1.66 3.78 3.965 1.66 2.305 3.227 3.965 3.412 3.781.461-.462-1.937-5.809-3.873-8.852-1.475-2.213-1.383-2.489 2.213-8.483 2.12-3.411 3.78-6.638 3.78-7.099 0-.461.277-1.014.738-1.199 1.106-.461 11.248-21.852 11.248-23.88 0-1.752 1.845-5.44 2.767-5.44.553 0 2.581 1.106 4.61 2.397ZM67.794 202.444c.83 2.95 2.858 8.943 4.333 13.277l2.767 7.929-7.838 7.561c-13.185 13-18.164 23.972-18.164 40.477 0 5.716.554 12.171 1.383 15.121 4.242 16.504 20.008 30.796 36.052 32.64 4.056.553 5.347.276 6.823-1.014 3.78-3.412 1.198-7.192-6.547-9.682-5.347-1.844-12.816-9.404-14.937-15.398-2.95-8.206-2.028-16.873 2.49-24.618 2.305-3.872 9.958-11.617 11.525-11.617 1.014 0 1.199.553 10.696 28.583 10.511 31.072 14.291 42.413 14.291 43.519 0 2.305-15.95 6.27-25.356 6.27-8.575 0-18.071-2.305-27.015-6.454-10.603-4.979-21.391-15.675-26.185-25.909-4.887-10.511-5.81-14.753-5.81-27.569.093-16.227 2.675-25.54 11.618-41.675 7.008-12.632 12.355-20.193 23.512-33.746 1.844-2.121 3.596-3.689 3.965-3.412.46.184 1.475 2.766 2.397 5.717Zm313.028 33.285c0 .83-9.681 15.766-12.632 19.547-.461.461-14.107-13.37-14.107-14.292 0-.276 2.49-4.241 5.532-8.759l5.532-8.298 7.838 5.348c4.241 2.858 7.745 5.808 7.837 6.454Zm23.143-7.93c1.752.554 4.057 1.66 5.071 2.49 1.936 1.475 1.936 1.475-2.582 8.114-2.489 3.688-4.61 6.73-4.886 6.73-.646 0-15.214-10.234-15.214-10.787 0-1.383 3.319-5.809 4.979-6.639 2.674-1.199 8.852-1.199 12.632.092Zm148.077 13.37c1.66 3.503 4.795 10.234 7.008 15.029 4.61 9.773 4.61 9.773-2.213 12.355-2.397.83-5.625 2.766-7.192 4.241-1.567 1.568-3.043 2.766-3.319 2.766-.185 0-5.256 3.043-11.065 6.639-5.901 3.688-11.802 7.376-13.185 8.206-1.383.83-7.284 4.333-13.092 7.929-15.122 9.128-20.93 12.263-21.576 11.618-.276-.369-.553-4.149-.553-8.483l-.092-7.929-4.149 4.61c-2.398 2.489-6.454 6.915-9.036 9.681a1277.686 1277.686 0 0 0-9.497 10.696c-4.426 5.163-5.532 5.901-12.908 8.482-4.426 1.568-12.263 3.965-17.334 5.164-9.958 2.489-28.676 4.979-29.69 3.964-1.014-1.106 6.086-15.213 14.753-29.228l3.135-5.071 13.277-5.071c21.299-8.022 54.215-25.079 81.507-42.413 4.61-2.859 10.142-6.362 12.447-7.745 2.305-1.383 7.469-4.518 11.526-7.008 4.056-2.489 7.56-4.518 7.837-4.61.276 0 1.844 2.766 3.411 6.178Zm-161.262 0a453.341 453.341 0 0 1 6.177 4.425l3.135 2.398-7.191 10.88c-3.965 6.085-7.469 11.525-7.746 12.263-.461 1.383-14.475-11.895-14.475-13.831 0-.645 2.95-5.532 6.454-10.88 7.192-10.695 6.546-10.419 13.646-5.255Zm-30.058 27.845c-7.376 15.213-9.22 20.1-9.589 26.093-.277 4.334-1.568 4.426-5.809.369-5.348-5.255-7.284-10.695-6.639-18.901.738-9.221 4.057-18.072 10.972-29.413l1.937-3.135 7.099 7.1 7.192 7.191-5.163 10.696Zm252.451-7.561c2.674 8.299 4.702 15.214 4.518 15.398-.185.185-6.547 3.504-14.107 7.376-20.746 10.696-40.293 22.129-64.173 37.435-25.448 16.412-49.421 30.427-52.095 30.427-.738 0-.553-37.25.277-38.357.368-.553 3.964-2.766 8.021-4.979 8.944-4.886 25.54-14.937 37.158-22.405 4.702-3.043 8.759-5.348 8.944-5.071.276.184 0 1.844-.461 3.596-.554 1.659-.922 5.255-.922 7.929 0 4.057.368 5.164 2.858 7.561 7.007 7.007 20.93.922 27.661-12.079 2.766-5.347 2.766-11.894.092-17.61-1.199-2.49-1.936-4.979-1.752-5.533.645-1.659 37.619-20.284 38.356-19.362.369.369 2.859 7.468 5.625 15.674Zm-204.229-7.837c3.042 2.121 5.716 3.965 5.901 4.149.184.092-.369 1.014-1.383 1.936-2.951 2.674-4.057 5.533-4.057 10.327 0 3.688-.646 5.532-3.412 9.866-1.936 2.95-6.177 9.865-9.497 15.49-6.823 11.433-6.546 11.249-18.625 11.433-5.532.092-7.191-.184-7.191-1.199 0-1.844 3.872-10.695 4.702-10.695.369 0 2.028-1.107 3.688-2.49 3.688-3.135 6.27-8.851 6.362-13.83 0-3.227 1.199-5.624 8.298-16.32 4.518-6.915 8.575-12.539 8.944-12.539.369 0 3.135 1.751 6.27 3.872Zm-294.588 1.567c9.22 3.504 18.349 13.278 22.129 23.789 2.766 7.745 2.305 21.852-1.014 30.242-2.029 5.164-8.575 13.37-10.696 13.37-1.198 0-.369 2.12-13.738-36.328-5.809-16.689-10.511-30.888-10.511-31.626 0-1.844 8.298-1.567 13.83.553Zm561.976 10.88c.829 4.518 2.305 11.434 3.319 15.49.922 4.057 1.383 7.561 1.014 7.838-.369.368-5.993 2.581-12.632 5.071-11.617 4.333-14.199 5.348-27.476 11.341l-6.178 2.858-1.291-3.043c-2.305-5.532-8.851-26.185-8.851-27.937 0-1.291 3.504-3.043 15.951-7.929 17.15-6.823 30.611-11.526 33.009-11.618 1.198-.092 1.844 1.752 3.135 7.929Zm-302.241 4.887c-5.993 4.702-8.298 16.412-4.241 21.576 2.028 2.581 1.844 3.964-1.107 9.957-1.659 3.228-2.028 3.412-4.794 2.859-1.568-.277-4.702-1.291-6.823-2.213-3.319-1.383-3.965-2.121-3.965-4.241 0-6.823 5.901-22.775 12.632-34.3l2.305-3.965 4.241 4.15 4.242 4.241-2.49 1.936Zm192.98 2.951c1.66 1.751 1.937 2.858 1.476 6.085-1.291 9.405-9.774 18.625-17.335 18.625-4.517 0-6.269-1.936-6.269-7.007 0-5.072 2.397-9.866 7.099-14.384 5.809-5.624 11.618-6.915 15.029-3.319Zm121.984-.185c5.809 2.213 12.632 7.653 11.249 9.036-1.198 1.199-15.121 5.256-15.766 4.61-.277-.276-1.107-3.227-1.845-6.362-.737-3.227-1.567-6.638-1.844-7.56-.645-2.121 1.937-2.029 8.206.276Zm-64.91 20.93c2.581 7.745 4.702 14.66 4.702 15.49 0 .738-1.567 2.121-3.411 2.951-6.916 3.135-24.065 12.724-39.002 21.667-18.902 11.341-17.519 10.512-25.356 15.583-41.307 27.015-61.499 38.54-79.94 45.548-8.206 3.042-26.185 7.745-26.738 6.823-.185-.185-.185-8.298 0-17.98l.276-17.518 3.596-1.014c3.043-.738 4.057-.646 6.178.737 3.503 2.397 8.298 2.213 13.738-.553 4.334-2.213 8.667-7.007 8.667-9.774 0-.737 2.397-2.581 5.348-4.149 2.858-1.567 8.575-4.702 12.632-6.823 6.915-3.78 28.767-17.334 45.179-28.122 22.313-14.568 67.216-39.093 68.875-37.526.277.369 2.674 7.007 5.256 14.66Zm60.393 9.036c1.383 6.085 2.673 11.986 2.95 13.093.553 1.936.277 2.121-2.858 2.121-8.391 0-17.058 8.667-17.058 16.965 0 1.383-1.291 2.582-4.333 4.149-2.49 1.291-9.221 5.163-15.029 8.667-15.214 9.22-24.434 15.213-71.918 46.286-4.795 3.227-14.107 8.759-20.746 12.447-6.546 3.688-12.355 7.008-12.908 7.376-2.121 1.568-28.307 13.001-35.498 15.49-27.477 9.497-59.84 12.079-78.096 6.27-17.15-5.532-28.398-17.518-33.377-35.59-3.043-10.788-2.49-13.277 1.751-8.759 5.256 5.532 18.072 11.617 27.477 12.908 2.858.369 4.794 1.106 4.794 1.752 0 .645.83 1.936 1.937 2.95 3.503 3.135 13.646 1.476 18.071-2.858.646-.645 4.795-1.844 9.221-2.674 9.128-1.659 21.483-5.44 31.256-9.589 6.639-2.766 19.363-9.128 21.115-10.511.553-.461 5.901-3.688 11.986-7.284 6.085-3.688 18.164-11.157 26.739-16.781 21.852-14.199 28.122-18.164 41.952-26.462 12.632-7.561 37.711-20.746 38.264-20.1.185.184.553 1.383.922 2.674.553 2.305.369 2.489-3.227 2.95-9.128 1.199-19.178 11.618-20.1 20.746-.461 5.348.645 7.929 4.61 9.958 9.036 4.702 24.987-6.823 26.831-19.455.461-2.674-.092-5.717-2.028-11.341l-2.582-7.745 1.936-1.199c1.107-.737 4.057-2.213 6.547-3.319 2.581-1.106 6.454-2.766 8.667-3.78 2.212-1.015 8.851-3.688 14.752-5.901 5.901-2.305 11.525-4.518 12.54-4.887 1.014-.461 2.12-.553 2.489-.184.277.276 1.66 5.532 2.951 11.617Zm-266.835.092c0 .277-1.844 3.596-4.149 7.377-2.305 3.688-4.149 7.191-4.149 7.652 0 .461-.277 1.015-.646 1.199-.829.277-7.652 14.107-7.652 15.306 0 1.198-17.15-1.199-17.98-2.582-.553-.922 3.688-13.185 6.731-19.363l2.489-5.071 10.972-2.028c5.994-1.107 11.157-2.213 11.434-2.582.645-.645 2.95-.645 2.95.092Zm-57.442 2.951c3.135.83 5.716 1.844 5.809 2.305.276 1.844-1.291 13.646-1.937 14.015-1.567 1.014-8.667-9.589-10.511-15.951-.737-2.398-.553-2.49 6.639-.369Zm27.937 2.858c0 .461-1.014 3.043-2.213 5.717-1.198 2.766-2.858 7.56-3.78 10.787-.922 3.135-2.121 5.717-2.674 5.717-.553 0-3.504-1.383-6.546-3.043l-5.532-2.95.276-6.362c.553-10.788.461-10.696 11.249-10.696 5.071 0 9.22.369 9.22.83Zm95.891 24.526v15.213h-4.518c-2.489 0-5.901.554-7.653 1.291-4.241 1.844-8.759 6.178-9.589 9.221-.645 2.766-1.106 3.134-4.979 4.241l-2.766.83v-7.561c0-7.007.184-7.745 2.674-10.511 8.483-9.681 14.937-16.873 18.994-21.299 2.581-2.766 4.794-5.348 4.886-5.809.185-.461.922-.829 1.66-.829 1.014 0 1.291 2.673 1.291 15.213Zm-104.742 1.844c0 .738-.093 3.596-.185 6.178-.092 2.673-.645 5.532-1.106 6.269-.738 1.199-1.014 1.107-2.305-.461-2.305-3.042-6.823-12.724-7.469-15.951l-.645-2.95 5.901 2.766c3.504 1.66 5.901 3.319 5.809 4.149Zm73.577-4.795c-1.936 2.029-2.028 2.951-2.028 18.349v16.135l-3.504 1.015c-7.56 2.305-21.944 3.227-31.441 2.212-8.759-1.014-19.27-4.057-20.469-5.993-.83-1.198 1.475-10.787 4.334-18.256l2.305-6.085 9.865-.554c10.696-.553 24.25-3.227 33.47-6.638 3.227-1.107 6.731-2.121 7.653-2.213 1.66-.092 1.659 0-.185 2.028Zm-61.038 6.178c3.781.645 7.008 1.291 7.1 1.383.184.092-.922 3.873-2.397 8.391-1.476 4.517-2.951 9.589-3.32 11.156-.737 3.688-1.106 3.688-5.44.738-7.284-4.979-7.376-5.071-6.73-13.831.553-8.298 1.106-10.05 2.858-9.404.553.184 4.149.922 7.929 1.567Zm11.526 31.533c7.837 2.674 27.66 3.32 38.172 1.291 4.241-.83 8.021-1.475 8.482-1.475.461 0 .83 5.348.83 11.802v11.802l-4.518.092c-2.397.092-5.901.738-7.561 1.475-3.688 1.476-9.128 6.639-9.128 8.575 0 1.383-.737 1.291-9.22-.737-9.405-2.306-21.022-9.221-25.817-15.214-1.844-2.397-2.028-3.227-1.383-10.88.738-9.312.922-10.05 3.135-9.22.83.369 3.965 1.475 7.008 2.489Z" fill="#343434"/></svg>