<svg width="806" height="448" viewBox="0 0 806 448" fill="none" xmlns="http://www.w3.org/2000/svg"><path d="M331.678 0.519714C331.401 0.888525 331.77 4.11561 332.508 7.71152C333.153 11.2152 334.997 20.9887 336.565 29.3792C338.132 37.7696 339.884 46.9899 340.437 49.8481C341.083 52.7986 341.267 55.3803 340.99 55.6569C340.714 55.9335 336.38 55.3803 331.401 54.3661C321.443 52.3376 303.279 50.1248 289.449 49.1105L280.598 48.5573L279.122 39.1526C278.385 34.0815 277.002 23.9392 276.08 16.6552C275.158 9.46337 274.051 3.56241 273.682 3.56241C273.314 3.56241 266.491 13.2437 258.653 25.0456L244.27 46.6211L215.503 47.1743C185.444 47.8197 163.5 49.3871 143.953 52.4298C130.861 54.3661 112.236 58.2386 105.505 60.2671C98.4974 62.3877 98.4052 62.2955 95.6391 54.7349C93.334 48.5573 85.4968 33.3439 83.9294 32.1452C83.6527 31.8686 82.3619 30.209 81.1633 28.4571C79.9646 26.7053 76.4609 22.8327 73.5105 19.8823C68.8081 15.4565 67.4251 14.6267 64.5668 14.6267C62.4461 14.6267 60.3255 15.3644 58.9424 16.563C57.7438 17.6694 55.7153 19.4213 54.4245 20.5277C51.474 23.0172 46.1263 29.8402 46.1263 31.0388C46.1263 31.592 45.7574 32.1452 45.3886 32.3297C44.0056 32.8829 39.7643 44.8692 37.7358 53.6284C36.2606 59.8982 35.7074 66.4446 35.3385 79.1686C34.8775 94.9352 35.0619 97.0559 37.2748 107.751C38.75 114.851 41.7927 124.993 45.2042 133.937C48.2469 141.959 50.7364 148.966 50.7364 149.427C50.7364 149.888 45.7574 157.08 39.6721 165.47C16.2526 197.557 6.57131 217.012 1.77677 241.722C-3.93979 270.95 5.55708 299.902 28.0545 322.123C46.7717 340.563 68.5315 349.415 91.951 348.124C96.9299 347.847 104.122 346.833 107.902 345.819C111.959 344.62 115.186 344.251 115.739 344.712C116.292 345.173 117.307 347.11 117.952 349.046C118.598 350.982 119.704 353.748 120.349 355.316C128.279 374.402 132.059 388.877 132.244 401.417C132.336 408.885 132.059 410.268 129.754 414.786C126.527 421.056 122.009 425.297 114.725 428.709C106.611 432.674 99.1428 433.872 94.0716 432.12L90.1069 430.83L94.1638 428.432C99.8804 424.929 102.739 422.07 105.136 416.999C107.718 411.836 107.81 404.275 105.505 396.53C102.923 387.587 92.873 379.657 82.2697 378.274C66.5953 376.246 52.0272 394.041 53.7791 413.034C55.5309 432.489 74.3403 446.965 97.7598 447.057C113.619 447.057 130.123 439.036 138.052 427.418C139.435 425.297 140.818 423.361 141.095 423.085C142.755 421.609 145.89 411.928 146.812 405.75C147.641 399.757 147.549 397.268 146.258 390.721C144.691 383.253 138.882 364.72 132.889 348.585C131.322 344.343 130.031 340.194 130.031 339.365C130.031 338.535 133.995 334.109 138.882 329.591C143.677 325.073 148.656 319.818 149.854 317.881C152.62 313.64 184.43 282.291 199.644 268.829C202.963 265.971 209.97 259.978 223.616 248.36C232.837 240.615 252.937 225.033 266.491 215.352C275.619 208.898 304.294 190.365 311.209 186.492C313.791 185.109 317.294 183.081 319.046 181.975C320.798 180.868 331.217 175.613 342.097 170.265C371.694 155.697 384.879 151.179 405.993 148.044C408.391 147.675 408.575 147.86 408.022 150.072C407.745 151.363 404.887 157.633 401.752 163.995C395.759 176.074 384.879 193.039 371.325 211.203C366.899 217.196 363.303 222.452 363.303 222.913C363.303 223.374 362.935 223.927 362.566 224.111C362.197 224.203 359.615 227.615 356.941 231.487C354.175 235.452 351.87 238.679 351.594 238.679C351.409 238.679 348.459 235.821 344.955 232.225C341.544 228.629 338.224 225.771 337.671 225.771C335.366 225.771 336.749 228.445 341.912 233.7C350.211 242.367 349.934 241.814 347.813 245.318C341.267 256.106 337.948 264.127 336.565 273.163C334.628 284.688 337.856 293.632 345.877 299.164C350.118 302.115 350.856 303.221 351.686 308.292C352.608 313.271 355.927 318.711 360.722 323.137C364.133 326.272 364.963 327.839 365.977 332.357C367.36 338.719 371.417 346.833 375.474 351.166C377.503 353.472 378.609 355.961 379.531 360.387C381.006 367.486 384.787 376.891 388.198 382.054C389.858 384.452 390.872 387.494 391.241 390.814C392.071 398.466 395.759 410.268 399.355 416.262C405.993 427.418 417.242 435.716 430.796 439.404C435.498 440.787 440.2 441.064 455.506 440.972C472.656 440.972 475.514 440.695 485.933 438.39C505.296 434.149 536.276 421.609 553.241 411.283C554.993 410.176 557.113 408.978 557.851 408.609C561.17 407.041 577.306 396.899 595.654 384.82C637.791 357.067 645.075 352.55 661.302 343.421C667.203 340.194 667.664 340.01 669.601 341.393C672.459 343.421 678.913 343.237 683.155 341.116C686.843 339.18 690.992 333.832 691.914 329.683C692.375 327.563 694.034 326.456 701.503 322.768C720.22 313.548 758.023 299.072 780.059 292.71C782.365 291.972 787.712 290.405 792.046 289.114C796.379 287.823 801.266 286.532 802.926 286.164C804.493 285.795 805.876 285.149 805.876 284.596C805.876 283.49 802.741 284.135 788.819 288.192C757.378 297.505 724 309.952 700.396 321.201C696.432 323.045 692.928 324.243 692.559 323.782C691.453 322.584 684.906 291.327 685.46 290.405C685.921 289.759 690.346 288.192 700.857 285.149C704.269 284.227 706.021 296.306 704.269 308.292L703.531 312.902L705.468 308.292C707.588 303.313 708.234 292.802 706.851 286.532L706.113 283.305L720.22 279.894C744.746 273.993 772.407 269.659 792.046 268.553C804.493 267.907 810.302 266.432 800.713 266.34C784.116 266.248 744.193 272.057 719.206 278.234L704.914 281.738L698.645 276.113C684.63 263.482 678.176 257.212 678.821 256.659C679.927 255.46 696.616 251.588 710.446 249.283C736.816 244.857 768.903 244.488 796.195 248.36C804.77 249.559 806.89 249.559 805.692 248.36C805.415 248.084 800.067 247.162 793.798 246.24C785.038 245.041 775.634 244.765 753.782 244.765C722.156 244.765 713.028 245.779 688.502 251.864L676.7 254.815L674.856 252.51L673.012 250.205L673.289 252.878C673.565 255.46 673.473 255.46 658.352 260.808C649.962 263.666 638.805 268 633.457 270.305C628.202 272.702 623.592 274.638 623.223 274.638C622.577 274.638 621.379 271.503 615.939 254.999C613.818 248.545 612.158 243.013 612.435 242.828C613.265 241.906 639.082 231.948 648.025 229.09C666.927 223.005 690.992 217.841 703.07 217.288L708.602 217.012L709.063 220.792L709.617 224.664L704.822 225.125C695.417 226.14 687.857 233.055 687.857 240.892C687.857 248.822 700.212 249.375 708.418 241.906C713.581 237.02 713.95 235.729 713.305 225.863L712.659 216.827L717.546 216.274C724.369 215.629 749.54 217.196 758.3 218.856C762.264 219.593 765.676 220.239 765.86 220.239C766.045 220.239 766.229 221.898 766.229 223.835C766.229 232.133 774.066 234.53 782.272 228.814C784.67 227.154 787.067 225.771 787.805 225.771C788.45 225.771 792.046 226.785 795.734 228.076C802.465 230.381 807.075 231.119 805.415 229.643C804.862 229.182 800.805 227.707 796.379 226.232C789.833 224.111 788.358 223.374 788.911 222.175C790.202 218.948 790.294 213.139 789.003 208.99C788.265 206.593 787.897 204.472 788.081 204.195C788.358 203.919 792.23 205.578 796.748 207.791C805.507 212.217 805.876 212.401 805.876 211.203C805.876 210.373 789.188 201.798 787.62 201.798C787.251 201.798 785.038 195.436 782.918 187.691C775.726 161.967 773.329 154.775 772.038 154.775C770.194 154.775 770.47 156.342 775.081 172.109C780.889 191.84 781.904 195.528 781.904 197.28C781.904 198.479 779.967 198.018 771.116 194.791C765.123 192.67 756.271 189.904 751.384 188.705L742.625 186.585V179.669C742.717 173.492 741.427 162.704 735.987 123.702C734.972 116.603 734.05 112.73 733.405 113.099C732.944 113.468 731.1 116.05 729.348 118.816C727.596 121.582 725.937 124.071 725.66 124.348C725.199 124.809 721.419 130.341 706.758 152.009L701.503 159.846L701.964 165.839C702.333 169.158 702.794 174.322 703.162 177.457L703.808 183.081L690.531 183.634C668.586 184.556 646.919 189.074 624.329 197.557C617.967 199.862 612.435 201.798 612.066 201.798C611.605 201.798 607.917 203.366 603.676 205.394C599.527 207.33 592.98 210.281 589.2 212.033C585.42 213.692 575.554 218.487 567.348 222.636L552.411 230.104L550.936 227.984C550.198 226.785 549.553 225.586 549.553 225.31C549.553 225.033 546.602 218.763 543.006 211.295C539.411 203.919 536.091 196.819 535.63 195.621C534.8 193.5 533.325 192.947 531.389 194.238C530.559 194.791 530.651 195.621 531.573 197.649C532.311 199.216 535.999 206.869 539.779 214.891C543.56 222.82 546.879 230.104 547.156 231.119C547.617 232.594 545.496 234.161 533.694 241.353C525.949 246.055 516.083 252.141 511.75 254.907C507.416 257.673 503.267 260.255 502.529 260.531C501.792 260.9 496.167 264.035 490.082 267.539C474.223 276.759 452.371 287.547 438.172 293.079C431.441 295.753 425.817 297.781 425.54 297.597C425.171 297.228 427.845 292.802 437.619 277.22C446.931 262.467 452.002 253.247 456.797 242.552C472.195 208.345 470.904 176.166 453.57 158.647C451.449 156.527 449.421 154.775 448.96 154.775C448.591 154.775 446.747 152.562 444.811 149.98C442.967 147.306 439.924 143.895 438.172 142.327C436.42 140.852 433.47 137.256 431.533 134.49C429.597 131.724 427.015 128.405 425.725 127.206C424.434 126.008 421.852 122.412 419.916 119.185C418.072 115.957 415.767 112.546 414.845 111.532C413.923 110.518 411.249 106.092 408.944 101.666C398.34 81.4737 384.879 70.9626 357.126 61.2813L346.246 57.501L344.31 47.8197C343.295 42.4719 340.99 30.8544 339.423 22.0029C335.458 0.888517 335.274 0.427527 333.614 0.0587158C332.784 -0.12569 331.955 0.150904 331.678 0.519714ZM271.838 27.1663L272.945 35.0957L269.072 40.7201C266.952 43.855 264.831 46.7133 264.278 47.0821C262.803 48.0963 252.845 48.0041 252.199 46.9899C251.738 46.16 258.838 34.3581 261.327 31.592C261.881 30.9466 263.909 27.9961 265.845 24.8612C267.689 21.8185 269.626 19.2368 270.087 19.2368C270.455 19.2368 271.285 22.8328 271.838 27.1663ZM238.645 50.2169C239.936 50.5858 240.582 51.3234 240.305 52.061C240.028 52.7064 236.064 58.9762 231.361 65.9836L222.971 78.6154L223.709 84.7007C224.077 88.02 224.446 91.8926 224.446 93.3678L224.538 96.1339L206.559 100.006C185.629 104.524 168.387 109.042 152.252 114.206C145.89 116.234 140.542 117.617 140.265 117.341C139.896 117.064 139.528 110.425 139.343 102.588L139.067 88.3889H136.854H134.641L135.194 104.063C135.747 118.816 135.747 119.738 134.088 120.291C133.166 120.568 131.137 121.397 129.57 122.043C128.094 122.688 125.789 123.518 124.499 123.887C123.208 124.256 117.491 126.653 111.682 129.05C105.874 131.54 100.987 133.384 100.71 133.107C100.434 132.923 100.802 129.419 101.54 125.547C103.569 114.206 103.292 81.4737 101.079 72.8988C100.157 69.2107 99.6038 65.9836 99.8804 65.707C100.802 64.6928 124.96 58.884 135.563 57.0399C152.989 54.0895 166.266 52.6142 186.735 51.5078C217.9 49.8481 235.603 49.4793 238.645 50.2169ZM261.881 51.0468C261.881 51.3234 255.426 61.2813 247.497 73.1754C235.234 91.7082 230.624 97.4247 230.532 94.1054C230.532 93.7366 230.071 90.6017 229.61 87.098L228.688 80.8282L234.773 71.4236C238.184 66.3524 242.702 59.5294 245.007 56.3023L249.064 50.5858H255.519C259.022 50.5858 261.881 50.7702 261.881 51.0468ZM277.278 65.4304C278.385 72.7144 279.399 80.5516 279.583 82.7645L279.86 86.8214L268.335 88.4811C261.973 89.4031 253.767 90.7861 249.986 91.5237C246.206 92.3536 242.887 92.7224 242.426 92.538C241.78 92.077 267.781 52.4298 269.441 51.4156C269.994 51.0468 271.47 51.139 272.853 51.4156C275.158 52.061 275.342 52.522 277.278 65.4304ZM301.804 53.3518C314.713 54.4583 338.409 58.3308 341.267 59.806C342.189 60.3592 343.019 61.4657 343.019 62.3877C343.019 63.2175 343.295 65.4304 343.572 67.2744L344.125 70.5016H339.607C332.416 70.5016 326.883 73.6364 320.153 81.6581C318.585 83.5021 317.11 83.7787 303.741 84.7007C295.719 85.254 288.527 85.8994 287.882 86.0838C287.236 86.3604 286.314 85.6228 285.945 84.4241C285.208 82.7645 281.151 54.5505 281.243 52.1532C281.243 51.7844 283.179 51.6922 285.669 51.9688C288.066 52.1532 295.35 52.8908 301.804 53.3518ZM79.7802 58.1464C86.1422 63.6786 86.6032 85.5306 80.7023 102.68C76.6453 114.759 66.5953 133.384 61.8007 137.717C60.3255 139.008 59.8645 139.1 59.4956 138.086C56.914 130.802 55.9919 127.298 54.8855 119.738C53.1337 108.673 53.1337 103.141 54.8855 91.7082C57.7438 73.0832 62.8149 61.2813 69.6379 57.962C74.4325 55.5647 76.8297 55.6569 79.7802 58.1464ZM357.495 64.5084C376.027 71.0548 386.815 77.509 395.943 87.6512C401.383 93.6444 406.27 101.021 405.348 101.943C405.071 102.311 404.057 101.85 403.227 101.113C400.922 99.0844 391.333 94.382 384.971 92.1692C378.148 89.7719 376.949 88.6655 373.261 80.9204C371.602 77.4167 369.942 74.5585 369.573 74.5585C369.112 74.5585 368.836 77.4167 368.836 81.0126C368.836 86.0838 368.559 87.4668 367.453 87.4668C366.254 87.4668 355.835 85.9916 350.856 85.0696C349.289 84.793 349.012 84.0553 348.92 78.9842C348.92 75.7571 348.551 70.5937 348.182 67.3666C347.629 63.4941 347.721 61.6501 348.367 61.6501C348.92 61.6501 352.977 62.9409 357.495 64.5084ZM344.217 75.8493C345.416 76.7713 345.785 78.1544 345.601 80.7361L345.324 84.2397L335.182 83.8709C329.649 83.6865 324.855 83.4099 324.671 83.2255C323.841 82.4879 328.635 78.2466 332.323 76.4947C336.749 74.3741 341.82 74.0975 344.217 75.8493ZM317.202 90.0485C317.202 91.4316 318.032 93.8288 319.046 95.4885C323.472 102.772 336.749 100.744 344.771 91.616C347.26 88.7577 348.09 88.3889 351.963 88.3889C354.36 88.4811 359.062 88.9421 362.381 89.5875L368.375 90.6939L368.651 100.099L368.928 109.503L364.963 109.964C362.75 110.241 357.31 110.702 352.7 110.979C348.182 111.347 340.714 112.177 336.104 112.915C331.586 113.652 325.5 114.667 322.734 115.128C315.45 116.234 296.549 120.475 289.634 122.596C281.981 124.901 281.612 124.809 284.378 121.582C288.711 116.326 289.265 111.624 287.144 94.1976L286.499 89.4031L289.634 88.8499C293.69 88.1123 315.635 86.8214 316.557 87.2824C316.926 87.4668 317.202 88.6655 317.202 90.0485ZM341.82 87.8356C342.742 88.6655 340.99 90.3251 336.288 92.999C331.309 95.8573 326.699 96.5027 323.564 94.843C321.167 93.5522 321.075 87.7434 323.472 87.1902C325.5 86.637 341.175 87.1902 341.82 87.8356ZM281.243 95.0275L281.796 99.2688L276.633 99.361C268.611 99.361 261.696 102.404 255.242 108.766C253.767 110.149 252.66 111.716 252.66 112.269C252.66 112.823 252.384 113.284 252.015 113.284C250.724 113.284 248.88 118.263 248.327 123.057C247.866 127.391 248.05 127.852 250.816 130.618C252.476 132.277 253.674 133.845 253.398 134.029C253.121 134.398 238.092 140.022 237.447 140.022C237.355 140.022 236.894 138.086 236.617 135.597C236.248 133.199 235.142 125.731 234.128 119L232.191 106.829L235.234 101.943C236.894 99.361 238.369 97.0559 238.461 96.8715C238.645 96.5949 265.753 91.8004 272.484 90.8783C274.051 90.6017 276.541 90.5095 278.016 90.6017C280.598 90.6939 280.782 90.9705 281.243 95.0275ZM377.226 94.1054C382.666 97.978 384.326 100.006 385.432 103.971C387 109.688 386.723 110.518 383.219 110.518C381.56 110.518 378.24 110.241 375.843 109.964L371.602 109.319V100.283C371.602 95.2119 371.97 91.1549 372.339 91.1549C372.8 91.1549 375.013 92.4458 377.226 94.1054ZM393.915 99.0844C403.227 103.695 409.128 108.489 410.419 112.638C411.064 114.482 411.341 116.234 411.064 116.511C410.788 116.787 408.667 116.234 406.362 115.22C404.057 114.206 399.539 112.915 396.312 112.269C393.085 111.716 390.042 110.794 389.489 110.333C388.936 109.964 388.198 107.659 387.922 105.354C387.737 103.049 386.631 99.9142 385.524 98.439C384.418 97.0559 383.588 95.5807 383.588 95.304C383.588 94.382 387.184 95.7651 393.915 99.0844ZM226.659 107.475C227.212 111.993 228.595 121.213 229.61 128.036C230.624 134.859 231.454 140.852 231.454 141.405C231.454 141.866 229.241 143.249 226.567 144.356C223.985 145.462 215.779 148.782 208.403 151.824C201.027 154.867 191.899 158.739 188.118 160.399C176.409 165.655 143.216 182.343 135.932 186.677C132.151 188.89 128.924 190.734 128.74 190.734C127.357 190.734 91.3056 214.338 90.2913 215.905C88.9083 217.934 87.0642 215.536 84.8514 209.082C83.6527 205.302 81.2555 198.571 79.5958 194.145C76.0921 184.648 75.9077 182.528 78.3972 179.669C84.3904 172.754 95.9157 149.98 97.3909 142.235C97.9442 139.193 98.5896 138.639 104.583 135.873C116.108 130.525 133.627 123.426 135.102 123.426C135.286 123.426 135.655 135.873 136.024 151.087C136.393 166.3 136.761 178.747 136.946 178.747C137.038 178.747 139.804 176.166 143.031 172.939C146.351 169.804 151.33 165.009 154.188 162.335C159.904 157.08 163.224 151.179 163.224 146.569C163.224 144.448 162.302 142.604 159.812 140.022C156.862 136.703 156.032 136.334 152.159 136.334C149.117 136.334 146.812 136.98 144.507 138.547C142.755 139.746 141.003 140.576 140.726 140.207C140.45 139.93 140.173 135.504 140.173 130.433V121.121L149.209 118.447C167.926 112.73 173.274 111.255 185.813 108.028C200.381 104.248 220.758 99.7298 223.709 99.5454C225.46 99.4532 225.737 100.191 226.659 107.475ZM368.836 120.291V127.114H364.502C359.339 127.114 354.821 129.511 352.792 133.292C351.778 135.412 350.026 136.334 343.295 138.547C332.969 141.866 305.031 152.009 303.833 152.931C303.372 153.3 299.684 154.867 295.811 156.527C287.513 159.846 264.278 171.371 252.384 178.01C247.958 180.407 243.993 182.436 243.532 182.436C243.163 182.436 242.518 179.67 242.149 176.35C241.78 173.031 240.95 166.946 240.213 162.796C239.567 158.647 238.738 152.562 238.369 149.243L237.723 143.249L249.618 139.008C256.072 136.611 263.54 134.121 266.03 133.292C268.611 132.554 274.42 130.618 278.938 128.958C299.96 121.582 336.288 114.667 362.842 113.007C368.743 112.638 368.836 112.823 368.836 120.291ZM381.375 113.284C385.985 113.284 386.446 114.482 384.049 120.383C381.836 125.547 383.035 124.901 385.985 119.277C389.12 113.376 389.766 113.191 400.092 116.05C411.064 119.092 412.171 119.922 412.171 125.086V129.419H398.617C391.056 129.419 381.928 129.788 378.332 130.157L371.602 130.894V122.135C371.602 114.574 371.786 113.376 373.261 113.007C374.091 112.73 375.382 112.73 376.027 112.915C376.765 113.099 379.162 113.284 381.375 113.284ZM732.944 129.88C733.036 132.462 731.561 135.228 725.937 143.71C722.064 149.519 718.468 154.406 718.099 154.59C717.73 154.775 717.362 155.328 717.362 155.881C717.362 156.342 714.964 160.123 712.106 164.179C707.312 170.818 706.758 171.371 706.205 169.343C704.638 163.811 705.283 161.137 710.446 153.207C713.305 148.966 715.979 144.909 716.44 144.356C716.993 143.71 719.206 140.576 721.326 137.256C731.653 121.674 731.561 121.858 732.206 124.348C732.575 125.639 732.852 128.128 732.944 129.88ZM410.88 132.831C411.618 133.292 411.618 135.136 411.064 138.824C410.603 141.682 410.142 144.264 409.958 144.356C409.774 144.54 405.348 145.37 400.092 146.108C369.02 150.718 315.45 177.18 264.093 213.323C254.228 220.331 251.277 222.452 250.816 223.005C250.54 223.281 248.88 224.572 247.128 225.771C245.376 226.969 242.057 229.459 239.752 231.303C237.447 233.147 231.269 238.126 225.921 242.367C220.574 246.609 216.056 250.389 215.779 250.666C215.503 250.942 212.644 253.432 209.325 256.198C206.006 258.964 202.871 261.638 202.318 262.191C201.764 262.652 198.261 265.787 194.573 269.106C187.934 274.915 169.586 292.341 161.564 300.363C159.351 302.483 157.415 304.143 157.138 303.867C156.862 303.682 157.599 299.994 158.706 295.753C162.117 282.66 160.365 268 153.635 253.063C150.961 247.07 150.776 246.055 152.252 246.055C153.174 246.055 161.287 240.892 162.302 239.601C163.131 238.679 175.302 230.012 184.43 223.835C189.225 220.607 193.374 217.749 193.651 217.473C193.927 217.196 196.324 215.536 198.998 213.877L203.885 210.742L207.481 212.77C212.091 215.352 219.006 215.352 225.276 212.678C227.95 211.572 230.255 210.465 230.532 210.096C230.808 209.82 232.56 208.437 234.496 207.054C239.199 203.55 243.44 195.989 243.44 191.01C243.44 186.677 244.085 186.031 254.873 180.131C261.881 176.35 289.91 162.335 295.073 160.03C310.01 153.392 324.671 147.767 339.976 142.696L349.381 139.561L351.317 141.682C352.885 143.249 354.268 143.71 358.232 143.71C362.566 143.71 363.672 143.342 366.623 140.76C368.467 139.193 370.311 136.887 370.68 135.781C371.417 134.029 372.432 133.66 377.779 133.107C381.191 132.738 384.51 132.37 384.971 132.185C386.539 131.54 409.774 132.185 410.88 132.831ZM736.263 153.392C737.093 160.491 738.107 167.868 738.568 169.712L739.306 173.215H736.171C731.469 173.215 725.66 175.889 721.695 179.854C718.284 183.265 717.915 183.45 712.936 183.173C707.957 182.897 707.68 182.712 707.404 180.407C707.127 178.286 709.063 173.953 710.908 172.293C711.184 172.017 716.347 164.456 722.433 155.42C728.426 146.384 733.682 139.377 733.958 139.746C734.327 140.115 735.341 146.292 736.263 153.392ZM150.039 142.604C152.159 143.895 153.174 148.321 152.159 151.917C151.237 155.42 146.996 162.612 143.308 167.038L141.095 169.712V160.584C141.095 155.605 140.818 150.626 140.542 149.519C140.081 148.044 140.726 146.753 142.755 144.632C145.521 141.866 147.918 141.221 150.039 142.604ZM232.837 150.441C234.681 164.179 236.156 174.967 236.617 176.996C237.078 179.393 236.986 179.485 230.808 179.854C217.439 180.592 204.807 191.195 203.24 202.905L202.594 207.423L190.7 215.444C179.544 222.913 166.727 232.133 155.202 240.8C152.528 242.828 150.315 244.857 150.315 245.502C150.315 246.055 149.301 244.949 147.918 243.013C141.372 233.331 131.598 225.31 121.179 220.976C115.002 218.487 112.328 217.934 103.845 217.565L93.8872 217.012L107.718 207.976C115.37 202.997 124.038 197.465 126.988 195.621C147.826 183.081 181.111 166.485 207.481 155.605C212.275 153.576 217.07 151.548 218.084 151.087C222.326 148.966 231.085 145.831 231.638 146.2C232.007 146.384 232.468 148.228 232.837 150.441ZM423.051 148.136C423.973 148.782 423.973 150.349 423.143 155.973L422.129 162.981L418.717 163.257C412.816 163.718 406.639 162.981 406.639 161.69C406.639 161.045 407.469 158.555 408.575 156.066C409.589 153.576 410.788 150.626 411.249 149.427C411.986 147.675 412.816 147.399 416.965 147.399C419.639 147.399 422.405 147.767 423.051 148.136ZM435.498 150.994C435.959 151.455 436.512 154.314 436.789 157.449L437.342 162.981L431.441 162.612L425.54 162.243L425.632 159.201C425.632 157.541 426.001 154.59 426.37 152.562L427.016 149.058L430.888 149.611C433.009 149.98 435.129 150.626 435.498 150.994ZM458.641 169.527C462.514 176.627 464.726 186.954 464.726 197.741C464.726 220.792 456.244 242.828 433.377 279.341C427.2 289.206 421.483 297.873 420.654 298.703C419.086 300.178 400 305.065 395.759 305.065H393.638L396.22 300.639C399.078 295.845 409.405 279.064 410.05 278.326C410.327 278.05 411.341 278.972 412.355 280.447C416.043 285.518 423.973 282.199 425.632 274.823C425.909 273.44 426.37 271.78 426.554 271.042C427.108 269.291 425.264 262.929 423.696 261.361C422.498 260.162 422.959 258.964 427.661 251.403C434.576 240.431 440.477 229.643 443.612 222.083C445.364 218.026 447.023 215.629 448.683 214.707C454.584 211.387 457.166 203.089 454.215 197.372C452.924 194.883 452.832 192.762 453.293 184.925C453.754 177.825 453.57 173.676 452.371 168.236C451.541 164.272 450.896 160.768 450.896 160.491C450.896 159.016 456.52 165.563 458.641 169.527ZM411.249 169.158C414.937 171.648 417.703 174.137 417.703 175.059C417.703 179.024 403.319 204.656 393.085 219.04L388.936 224.849H380.822C371.878 224.849 366.992 224.111 366.992 222.82C366.992 221.991 370.772 216.551 383.772 198.571C390.227 189.535 403.873 167.407 403.873 165.839C403.873 164.364 404.334 164.64 411.249 169.158ZM436.789 166.116C437.342 166.761 435.59 180.499 434.853 181.237C434.484 181.698 430.796 179.67 425.817 176.166C421.576 173.308 421.483 173.123 422.498 170.173C423.973 165.747 425.725 164.733 431.257 165.194C433.931 165.378 436.42 165.839 436.789 166.116ZM444.718 172.201C450.619 178.747 451.173 180.131 450.619 185.755C450.343 188.613 449.882 191.103 449.605 191.379C449.329 191.748 440.938 186.585 437.25 183.819C437.066 183.634 437.434 181.79 437.895 179.577C438.356 177.364 439.094 173.953 439.371 172.017C439.647 170.173 440.293 168.605 440.661 168.605C441.123 168.605 442.967 170.265 444.718 172.201ZM427.569 180.131C430.704 182.159 433.285 184.464 433.377 185.294C433.377 188.613 429.136 199.309 423.143 210.834C419.547 217.657 416.32 223.65 415.767 224.203C415.306 224.849 414.292 226.14 413.646 227.062C412.447 228.814 412.355 228.814 408.206 226.785C405.901 225.679 401.66 224.48 398.801 224.203C396.035 223.927 393.73 223.558 393.73 223.374C393.73 223.189 397.05 218.026 401.199 211.756C405.256 205.486 411.341 194.883 414.753 188.152C418.072 181.421 421.115 176.074 421.391 176.166C421.668 176.35 424.434 178.102 427.569 180.131ZM705.744 195.528C706.574 201.245 707.404 207.976 707.496 210.465L707.68 214.891L703.531 215.26C691.361 216.09 673.934 219.501 657.153 224.296C649.501 226.508 642.124 228.721 640.833 229.275C639.543 229.828 635.394 231.395 631.613 232.778C627.833 234.161 622.116 236.466 618.889 237.942C611.882 241.076 611.513 241.076 610.407 238.218C609.485 235.821 608.747 235.544 606.442 236.466C605.335 236.835 605.243 237.573 605.889 239.878C606.35 241.445 606.626 242.828 606.442 242.921C606.35 243.013 599.896 246.332 592.058 250.205C584.221 254.169 575.738 258.595 573.341 259.978C570.852 261.453 568.454 262.652 567.901 262.652C567.44 262.652 565.781 260.07 564.397 256.843C562.922 253.708 559.787 247.07 557.482 241.999C555.085 237.02 553.425 232.594 553.886 232.225C555.454 230.658 580.072 218.302 591.505 213.323C598.144 210.373 603.952 207.607 604.598 207.146C605.704 206.224 616.861 202.075 632.996 196.635C653.742 189.535 675.317 185.57 695.325 185.294L704.177 185.202L705.744 195.528ZM717.362 188.613C717.362 192.67 717.915 193.777 720.773 195.252C725.015 197.465 732.299 195.621 737.185 191.195C740.228 188.337 740.597 188.244 744.746 188.982C751.846 190.365 762.357 193.5 772.96 197.465C782.088 200.784 783.01 201.429 784.209 204.38C785.96 208.437 786.053 208.252 782.549 208.252C778.215 208.252 769.087 213.969 767.981 217.38C767.704 218.21 765.123 218.118 758.392 217.104C746.129 215.26 725.752 213.969 718.099 214.522C714.596 214.707 711.83 214.522 711.83 214.153C711.83 213.692 711 207.146 709.985 199.585C708.971 192.117 708.141 185.755 708.141 185.57C708.141 185.386 710.262 185.202 712.752 185.202H717.362V188.613ZM441.676 189.443C443.704 190.826 445.364 192.025 445.364 192.117C445.364 192.209 444.35 193.408 443.151 194.883C441.952 196.266 440.754 198.94 440.385 200.784C439.832 204.38 441.123 210.557 442.598 211.479C444.534 212.678 443.796 215.352 438.449 226.693C433.562 237.204 421.483 257.12 420.1 257.12C419.455 257.12 417.242 256.013 415.306 254.63C413.369 253.339 409.958 251.034 407.837 249.559L403.965 246.977L408.114 240.708C410.419 237.296 412.632 234.438 413.001 234.253C413.369 234.161 415.029 235.913 416.781 238.218C418.441 240.523 420.008 242.183 420.193 241.999C420.654 241.537 418.256 236.19 416.32 233.147C414.845 230.934 414.937 230.658 418.533 224.664C420.653 221.253 422.313 218.026 422.313 217.565C422.313 217.104 422.59 216.551 423.051 216.366C424.157 215.905 434.299 194.514 434.299 192.486C434.299 190.734 436.144 187.046 437.066 187.046C437.619 187.046 439.647 188.152 441.676 189.443ZM67.7939 202.444C68.6237 205.394 70.6522 211.387 72.1274 215.721L74.8935 223.65L67.0563 231.211C53.8713 244.211 48.8923 255.183 48.8923 271.688C48.8923 277.404 49.4456 283.859 50.2754 286.809C54.5167 303.313 70.2834 317.605 86.3266 319.449C90.3835 320.002 91.6744 319.725 93.1496 318.435C96.9299 315.023 94.3483 311.243 86.6032 308.753C81.2555 306.909 73.7871 299.349 71.6664 293.355C68.7159 285.149 69.6379 276.482 74.1559 268.737C76.4609 264.865 84.1138 257.12 85.6812 257.12C86.6954 257.12 86.8798 257.673 96.3767 285.703C106.888 316.775 110.668 328.116 110.668 329.222C110.668 331.527 94.7171 335.492 85.3124 335.492C76.7375 335.492 67.2407 333.187 58.297 329.038C47.6937 324.059 36.906 313.363 32.1115 303.129C27.2247 292.618 26.3027 288.376 26.3027 275.56C26.3949 259.333 28.9766 250.02 37.9202 233.885C44.9276 221.253 50.2754 213.692 61.4319 200.139C63.276 198.018 65.0278 196.45 65.3966 196.727C65.8576 196.911 66.8719 199.493 67.7939 202.444ZM380.822 235.729C380.822 236.559 371.141 251.495 368.19 255.276C367.729 255.737 354.083 241.906 354.083 240.984C354.083 240.708 356.573 236.743 359.615 232.225L365.147 223.927L372.985 229.275C377.226 232.133 380.73 235.083 380.822 235.729ZM403.965 227.799C405.717 228.353 408.022 229.459 409.036 230.289C410.972 231.764 410.972 231.764 406.454 238.403C403.965 242.091 401.844 245.133 401.568 245.133C400.922 245.133 386.354 234.899 386.354 234.346C386.354 232.963 389.673 228.537 391.333 227.707C394.007 226.508 400.185 226.508 403.965 227.799ZM552.042 241.169C553.702 244.672 556.837 251.403 559.05 256.198C563.66 265.971 563.66 265.971 556.837 268.553C554.44 269.383 551.212 271.319 549.645 272.794C548.078 274.362 546.602 275.56 546.326 275.56C546.141 275.56 541.07 278.603 535.261 282.199C529.36 285.887 523.459 289.575 522.076 290.405C520.693 291.235 514.792 294.738 508.984 298.334C493.862 307.462 488.054 310.597 487.408 309.952C487.132 309.583 486.855 305.803 486.855 301.469L486.763 293.54L482.614 298.15C480.216 300.639 476.16 305.065 473.578 307.831C470.996 310.69 466.755 315.484 464.081 318.527C459.655 323.69 458.549 324.428 451.173 327.009C446.747 328.577 438.91 330.974 433.839 332.173C423.881 334.662 405.163 337.152 404.149 336.137C403.135 335.031 410.235 320.924 418.902 306.909L422.037 301.838L435.314 296.767C456.613 288.745 489.529 271.688 516.821 254.354C521.431 251.495 526.963 247.992 529.268 246.609C531.573 245.226 536.737 242.091 540.794 239.601C544.85 237.112 548.354 235.083 548.631 234.991C548.907 234.991 550.475 237.757 552.042 241.169ZM390.78 241.169C392.347 242.275 395.206 244.304 396.957 245.594L400.092 247.992L392.901 258.872C388.936 264.957 385.432 270.397 385.155 271.135C384.694 272.518 370.68 259.24 370.68 257.304C370.68 256.659 373.63 251.772 377.134 246.424C384.326 235.729 383.68 236.005 390.78 241.169ZM360.722 269.014C353.346 284.227 351.502 289.114 351.133 295.107C350.856 299.441 349.565 299.533 345.324 295.476C339.976 290.221 338.04 284.781 338.685 276.575C339.423 267.354 342.742 258.503 349.657 247.162L351.594 244.027L358.693 251.127L365.885 258.318L360.722 269.014ZM613.173 261.453C615.847 269.752 617.875 276.667 617.691 276.851C617.506 277.036 611.144 280.355 603.584 284.227C582.838 294.923 563.291 306.356 539.411 321.662C513.963 338.074 489.99 352.089 487.316 352.089C486.578 352.089 486.763 314.839 487.593 313.732C487.961 313.179 491.557 310.966 495.614 308.753C504.558 303.867 521.154 293.816 532.772 286.348C537.474 283.305 541.531 281 541.716 281.277C541.992 281.461 541.716 283.121 541.255 284.873C540.701 286.532 540.333 290.128 540.333 292.802C540.333 296.859 540.701 297.966 543.191 300.363C550.198 307.37 564.121 301.285 570.852 288.284C573.618 282.937 573.618 276.39 570.944 270.674C569.745 268.184 569.008 265.695 569.192 265.141C569.837 263.482 606.811 244.857 607.548 245.779C607.917 246.148 610.407 253.247 613.173 261.453ZM408.944 253.616C411.986 255.737 414.66 257.581 414.845 257.765C415.029 257.857 414.476 258.779 413.462 259.701C410.511 262.375 409.405 265.234 409.405 270.028C409.405 273.716 408.759 275.56 405.993 279.894C404.057 282.844 399.816 289.759 396.496 295.384C389.673 306.817 389.95 306.633 377.871 306.817C372.339 306.909 370.68 306.633 370.68 305.618C370.68 303.774 374.552 294.923 375.382 294.923C375.751 294.923 377.41 293.816 379.07 292.433C382.758 289.298 385.34 283.582 385.432 278.603C385.432 275.376 386.631 272.979 393.73 262.283C398.248 255.368 402.305 249.744 402.674 249.744C403.043 249.744 405.809 251.495 408.944 253.616ZM114.356 255.183C123.576 258.687 132.705 268.461 136.485 278.972C139.251 286.717 138.79 300.824 135.471 309.214C133.442 314.378 126.896 322.584 124.775 322.584C123.577 322.584 124.406 324.704 111.037 286.256C105.228 269.567 100.526 255.368 100.526 254.63C100.526 252.786 108.824 253.063 114.356 255.183ZM676.332 266.063C677.161 270.581 678.637 277.497 679.651 281.553C680.573 285.61 681.034 289.114 680.665 289.391C680.296 289.759 674.672 291.972 668.033 294.462C656.416 298.795 653.834 299.81 640.557 305.803L634.379 308.661L633.088 305.618C630.783 300.086 624.237 279.433 624.237 277.681C624.237 276.39 627.741 274.638 640.188 269.752C657.338 262.929 670.799 258.226 673.197 258.134C674.395 258.042 675.041 259.886 676.332 266.063ZM374.091 270.95C368.098 275.652 365.793 287.362 369.85 292.526C371.878 295.107 371.694 296.49 368.743 302.483C367.084 305.711 366.715 305.895 363.949 305.342C362.381 305.065 359.247 304.051 357.126 303.129C353.807 301.746 353.161 301.008 353.161 298.888C353.161 292.065 359.062 276.113 365.793 264.588L368.098 260.623L372.339 264.773L376.581 269.014L374.091 270.95ZM567.071 273.901C568.731 275.652 569.008 276.759 568.547 279.986C567.256 289.391 558.773 298.611 551.212 298.611C546.695 298.611 544.943 296.675 544.943 291.604C544.943 286.532 547.34 281.738 552.042 277.22C557.851 271.596 563.66 270.305 567.071 273.901ZM689.055 273.716C694.864 275.929 701.687 281.369 700.304 282.752C699.106 283.951 685.183 288.008 684.538 287.362C684.261 287.086 683.431 284.135 682.693 281C681.956 277.773 681.126 274.362 680.849 273.44C680.204 271.319 682.786 271.411 689.055 273.716ZM624.145 294.646C626.726 302.391 628.847 309.306 628.847 310.136C628.847 310.874 627.28 312.257 625.436 313.087C618.52 316.222 601.371 325.811 586.434 334.754C567.532 346.095 568.915 345.266 561.078 350.337C519.771 377.352 499.579 388.877 481.138 395.885C472.932 398.927 454.953 403.63 454.4 402.708C454.215 402.523 454.215 394.41 454.4 384.728L454.676 367.21L458.272 366.196C461.315 365.458 462.329 365.55 464.45 366.933C467.953 369.33 472.748 369.146 478.188 366.38C482.522 364.167 486.855 359.373 486.855 356.606C486.855 355.869 489.252 354.025 492.203 352.457C495.061 350.89 500.778 347.755 504.835 345.634C511.75 341.854 533.602 328.3 550.014 317.512C572.327 302.944 617.23 278.419 618.889 279.986C619.166 280.355 621.563 286.993 624.145 294.646ZM684.538 303.682C685.921 309.767 687.211 315.668 687.488 316.775C688.041 318.711 687.765 318.896 684.63 318.896C676.239 318.896 667.572 327.563 667.572 335.861C667.572 337.244 666.281 338.443 663.239 340.01C660.749 341.301 654.018 345.173 648.21 348.677C632.996 357.897 623.776 363.89 576.292 394.963C571.497 398.19 562.185 403.722 555.546 407.41C549 411.098 543.191 414.418 542.638 414.786C540.517 416.354 514.331 427.787 507.14 430.276C479.663 439.773 447.3 442.355 429.044 436.546C411.894 431.014 400.646 419.028 395.667 400.956C392.624 390.168 393.177 387.679 397.418 392.197C402.674 397.729 415.49 403.814 424.895 405.105C427.753 405.474 429.689 406.211 429.689 406.857C429.689 407.502 430.519 408.793 431.626 409.807C435.129 412.942 445.272 411.283 449.697 406.949C450.343 406.304 454.492 405.105 458.918 404.275C468.046 402.616 480.401 398.835 490.174 394.686C496.813 391.92 509.537 385.558 511.289 384.175C511.842 383.714 517.19 380.487 523.275 376.891C529.36 373.203 541.439 365.734 550.014 360.11C571.866 345.911 578.136 341.946 591.966 333.648C604.598 326.087 629.677 312.902 630.23 313.548C630.415 313.732 630.783 314.931 631.152 316.222C631.705 318.527 631.521 318.711 627.925 319.172C618.797 320.371 608.747 330.79 607.825 339.918C607.364 345.266 608.47 347.847 612.435 349.876C621.471 354.578 637.422 343.053 639.266 330.421C639.727 327.747 639.174 324.704 637.238 319.08L634.656 311.335L636.592 310.136C637.699 309.399 640.649 307.923 643.139 306.817C645.72 305.711 649.593 304.051 651.806 303.037C654.018 302.022 660.657 299.349 666.558 297.136C672.459 294.831 678.083 292.618 679.098 292.249C680.112 291.788 681.218 291.696 681.587 292.065C681.864 292.341 683.247 297.597 684.538 303.682ZM417.703 303.774C417.703 304.051 415.859 307.37 413.554 311.151C411.249 314.839 409.405 318.342 409.405 318.803C409.405 319.264 409.128 319.818 408.759 320.002C407.93 320.279 401.107 334.109 401.107 335.308C401.107 336.506 383.957 334.109 383.127 332.726C382.574 331.804 386.815 319.541 389.858 313.363L392.347 308.292L403.319 306.264C409.313 305.157 414.476 304.051 414.753 303.682C415.398 303.037 417.703 303.037 417.703 303.774ZM360.261 306.725C363.396 307.555 365.977 308.569 366.07 309.03C366.346 310.874 364.779 322.676 364.133 323.045C362.566 324.059 355.466 313.456 353.622 307.094C352.885 304.696 353.069 304.604 360.261 306.725ZM388.198 309.583C388.198 310.044 387.184 312.626 385.985 315.3C384.787 318.066 383.127 322.86 382.205 326.087C381.283 329.222 380.084 331.804 379.531 331.804C378.978 331.804 376.027 330.421 372.985 328.761L367.453 325.811L367.729 319.449C368.282 308.661 368.19 308.753 378.978 308.753C384.049 308.753 388.198 309.122 388.198 309.583ZM484.089 334.109V349.322H479.571C477.082 349.322 473.67 349.876 471.918 350.613C467.677 352.457 463.159 356.791 462.329 359.834C461.684 362.6 461.223 362.968 457.35 364.075L454.584 364.905V357.344C454.584 350.337 454.768 349.599 457.258 346.833C465.741 337.152 472.195 329.96 476.252 325.534C478.833 322.768 481.046 320.186 481.138 319.725C481.323 319.264 482.06 318.896 482.798 318.896C483.812 318.896 484.089 321.569 484.089 334.109ZM379.347 335.953C379.347 336.691 379.254 339.549 379.162 342.131C379.07 344.804 378.517 347.663 378.056 348.4C377.318 349.599 377.042 349.507 375.751 347.939C373.446 344.897 368.928 335.215 368.282 331.988L367.637 329.038L373.538 331.804C377.042 333.464 379.439 335.123 379.347 335.953ZM452.924 331.158C450.988 333.187 450.896 334.109 450.896 349.507V365.642L447.392 366.657C439.832 368.962 425.448 369.884 415.951 368.869C407.192 367.855 396.681 364.812 395.482 362.876C394.652 361.678 396.957 352.089 399.816 344.62L402.121 338.535L411.986 337.981C422.682 337.428 436.236 334.754 445.456 331.343C448.683 330.236 452.187 329.222 453.109 329.13C454.769 329.038 454.768 329.13 452.924 331.158ZM391.886 337.336C395.667 337.981 398.894 338.627 398.986 338.719C399.17 338.811 398.064 342.592 396.589 347.11C395.113 351.627 393.638 356.699 393.269 358.266C392.532 361.954 392.163 361.954 387.829 359.004C380.545 354.025 380.453 353.933 381.099 345.173C381.652 336.875 382.205 335.123 383.957 335.769C384.51 335.953 388.106 336.691 391.886 337.336ZM403.412 368.869C411.249 371.543 431.072 372.189 441.584 370.16C445.825 369.33 449.605 368.685 450.066 368.685C450.527 368.685 450.896 374.033 450.896 380.487V392.289L446.378 392.381C443.981 392.473 440.477 393.119 438.817 393.856C435.129 395.332 429.689 400.495 429.689 402.431C429.689 403.814 428.952 403.722 420.469 401.694C411.064 399.388 399.447 392.473 394.652 386.48C392.808 384.083 392.624 383.253 393.269 375.6C394.007 366.288 394.191 365.55 396.404 366.38C397.234 366.749 400.369 367.855 403.412 368.869Z" fill="#343434" /></svg>